<svg width="696" height="157" viewBox="0 0 696 157" fill="none" xmlns="http://www.w3.org/2000/svg">
<path d="M210.202 131.678V34.1934H230.813L271.199 104.661V34.1934H288.329V131.678H267.718L227.331 61.3498V131.678H210.202ZM335.196 133.767C314.585 133.767 301.077 119.283 301.077 97.2797C301.077 75.5546 314.725 61.6283 334.361 61.6283C354.972 61.6283 367.505 74.9976 367.505 96.3048C367.505 98.3938 367.505 100.622 367.227 103.407H317.371C318.206 113.713 324.752 119.84 335.336 119.84C342.438 119.84 347.173 116.777 349.401 111.902H366.391C362.213 125.132 351.769 133.767 335.196 133.767ZM317.371 90.595H350.794V90.1773C350.794 81.2644 344.945 74.9976 334.361 74.9976C324.334 74.9976 317.928 81.2644 317.371 90.595ZM409.655 133.767C388.766 133.767 374.283 119.283 374.283 97.6975C374.283 76.1117 388.766 61.6283 409.655 61.6283C430.684 61.6283 445.168 76.1117 445.168 97.6975C445.168 119.283 430.684 133.767 409.655 133.767ZM391.412 97.6975C391.412 110.231 398.654 118.726 409.655 118.726C420.657 118.726 428.038 110.231 428.038 97.6975C428.038 85.1638 420.657 76.6687 409.655 76.6687C398.654 76.6687 391.412 85.1638 391.412 97.6975ZM456.426 131.678V110.51H476.062V131.678H456.426ZM491.419 131.678V63.7172H506.042V71.2374C509.941 64.5528 515.93 61.6283 523.868 61.6283C532.781 61.6283 539.326 65.8062 542.668 72.9086C547.403 65.2491 554.227 61.6283 562.444 61.6283C578.18 61.6283 587.233 71.516 587.233 88.6454V131.678H570.521V89.7595C570.521 81.2644 566.761 76.6687 559.38 76.6687C552.277 76.6687 547.542 82.1 547.542 90.1773V131.678H530.97V89.7595C530.97 81.2644 527.21 76.6687 519.829 76.6687C512.866 76.6687 507.992 82.2392 507.992 90.1773V131.678H491.419ZM588.801 156.745V141.844H598.271C601.753 141.844 602.867 140.312 602.867 135.856V63.7172H619.439V137.945C619.439 151.035 611.919 156.745 600.082 156.745H588.801ZM602.171 51.8798V34.8897H619.996V51.8798H602.171ZM660.026 133.767C641.504 133.767 630.363 126.246 629.666 111.902H646.796C647.353 117.612 652.227 120.397 660.583 120.397C668.103 120.397 672.699 117.194 672.699 112.181C672.699 107.864 669.357 105.635 663.368 105.078L652.506 103.964C639.833 102.572 631.895 95.0515 631.895 83.4926C631.895 69.9841 642.757 61.6283 660.026 61.6283C677.155 61.6283 688.018 68.87 688.853 83.0748H672.281C672.003 77.6436 667.268 75.1368 659.747 75.1368C652.645 75.1368 648.189 77.9221 648.189 82.657C648.189 86.6957 651.392 88.9239 658.215 89.7595L669.217 91.0128C682.03 92.5447 689.41 100.065 689.41 111.345C689.41 124.993 678.13 133.767 660.026 133.767Z" fill="black"/>
<path d="M8.8412 127.508L33.6763 144.928L33.6753 105.744L33.675 94.3431L43.0227 100.871L112.335 149.272L135.026 135.569L8.8412 46.5755L8.8412 127.508Z" stroke="#8BA6FF" stroke-width="11.8883"/>
<path d="M144.867 30.6613L120.032 13.2409L120.033 52.4246L120.034 63.8259L110.686 57.2982L41.3738 8.89651L18.6823 22.6004L144.867 111.593L144.867 30.6613Z" stroke="#8BA6FF" stroke-width="11.8883"/>
</svg>
