<svg width="123" height="124" viewBox="0 0 123 124" fill="none" xmlns="http://www.w3.org/2000/svg">
<g clip-path="url(#clip0_460_4276)">
<path d="M25.8 78.1988C25.8 85.2988 20 91.0988 12.9 91.0988C5.8 91.0988 0 85.2988 0 78.1988C0 71.0988 5.8 65.2988 12.9 65.2988H25.8V78.1988Z" fill="black"/>
<path d="M32.3008 78.1988C32.3008 71.0988 38.1008 65.2988 45.2008 65.2988C52.3008 65.2988 58.1008 71.0988 58.1008 78.1988V110.499C58.1008 117.599 52.3008 123.399 45.2008 123.399C38.1008 123.399 32.3008 117.599 32.3008 110.499V78.1988Z" fill="black"/>
<path d="M45.2008 26.3996C38.1008 26.3996 32.3008 20.5996 32.3008 13.4996C32.3008 6.39961 38.1008 0.599609 45.2008 0.599609C52.3008 0.599609 58.1008 6.39961 58.1008 13.4996V26.3996H45.2008Z" fill="black"/>
<path d="M45.2 32.9004C52.3 32.9004 58.1 38.7004 58.1 45.8004C58.1 52.9004 52.3 58.7004 45.2 58.7004H12.9C5.8 58.7004 0 52.9004 0 45.8004C0 38.7004 5.8 32.9004 12.9 32.9004H45.2Z" fill="black"/>
<path d="M97 45.8004C97 38.7004 102.8 32.9004 109.9 32.9004C117 32.9004 122.8 38.7004 122.8 45.8004C122.8 52.9004 117 58.7004 109.9 58.7004H97V45.8004Z" fill="black"/>
<path d="M90.4992 45.7996C90.4992 52.8996 84.6992 58.6996 77.5992 58.6996C70.4992 58.6996 64.6992 52.8996 64.6992 45.7996V13.4996C64.6992 6.39961 70.4992 0.599609 77.5992 0.599609C84.6992 0.599609 90.4992 6.39961 90.4992 13.4996V45.7996Z" fill="black"/>
<path d="M77.5992 97.5996C84.6992 97.5996 90.4992 103.4 90.4992 110.5C90.4992 117.6 84.6992 123.4 77.5992 123.4C70.4992 123.4 64.6992 117.6 64.6992 110.5V97.5996H77.5992Z" fill="black"/>
<path d="M77.5992 91.0988C70.4992 91.0988 64.6992 85.2988 64.6992 78.1988C64.6992 71.0988 70.4992 65.2988 77.5992 65.2988H109.899C116.999 65.2988 122.799 71.0988 122.799 78.1988C122.799 85.2988 116.999 91.0988 109.899 91.0988H77.5992Z" fill="black"/>
</g>
<defs>
<clipPath id="clip0_460_4276">
<rect width="123" height="124" fill="white"/>
</clipPath>
</defs>
</svg>
